<?xml version="1.0" encoding="UTF-8" standalone="no"?>
<!DOCTYPE svg PUBLIC "-//W3C//DTD SVG 1.1//EN"
 "http://www.w3.org/Graphics/SVG/1.1/DTD/svg11.dtd">
<!-- Generated by graphviz version 2.40.1 (20161225.0304)
 -->
<!-- Title: G Pages: 1 -->
<svg width="484pt" height="230pt"
 viewBox="0.00 0.00 484.20 230.20" xmlns="http://www.w3.org/2000/svg" xmlns:xlink="http://www.w3.org/1999/xlink">
<g id="graph0" class="graph" transform="scale(1 1) rotate(0) translate(21.6 208.6)">
<title>G</title>
<!-- DisplayObjAsTable.js -->
<g id="node1" class="node">
<title>DisplayObjAsTable.js</title>
<path fill="none" stroke="#cfffac" d="M433.3333,-64C433.3333,-64 294.6667,-64 294.6667,-64 290.8333,-64 287,-60.1667 287,-56.3333 287,-56.3333 287,-48.6667 287,-48.6667 287,-44.8333 290.8333,-41 294.6667,-41 294.6667,-41 433.3333,-41 433.3333,-41 437.1667,-41 441,-44.8333 441,-48.6667 441,-48.6667 441,-56.3333 441,-56.3333 441,-60.1667 437.1667,-64 433.3333,-64"/>
<text text-anchor="middle" x="364" y="-48.8" font-family="Arial" font-size="14.00" fill="#cfffac">DisplayObjAsTable.js</text>
</g>
<!-- HelloWorld.tsx -->
<g id="node2" class="node">
<title>HelloWorld.tsx</title>
<path fill="none" stroke="#cfffac" d="M223.8333,-187C223.8333,-187 129.1667,-187 129.1667,-187 125.3333,-187 121.5,-183.1667 121.5,-179.3333 121.5,-179.3333 121.5,-171.6667 121.5,-171.6667 121.5,-167.8333 125.3333,-164 129.1667,-164 129.1667,-164 223.8333,-164 223.8333,-164 227.6667,-164 231.5,-167.8333 231.5,-171.6667 231.5,-171.6667 231.5,-179.3333 231.5,-179.3333 231.5,-183.1667 227.6667,-187 223.8333,-187"/>
<text text-anchor="middle" x="176.5" y="-171.8" font-family="Arial" font-size="14.00" fill="#cfffac">HelloWorld.tsx</text>
</g>
<!-- Page.js -->
<g id="node3" class="node">
<title>Page.js</title>
<path fill="none" stroke="#cfffac" d="M201.3333,-146C201.3333,-146 151.6667,-146 151.6667,-146 147.8333,-146 144,-142.1667 144,-138.3333 144,-138.3333 144,-130.6667 144,-130.6667 144,-126.8333 147.8333,-123 151.6667,-123 151.6667,-123 201.3333,-123 201.3333,-123 205.1667,-123 209,-126.8333 209,-130.6667 209,-130.6667 209,-138.3333 209,-138.3333 209,-142.1667 205.1667,-146 201.3333,-146"/>
<text text-anchor="middle" x="176.5" y="-130.8" font-family="Arial" font-size="14.00" fill="#cfffac">Page.js</text>
</g>
<!-- ReactRouterMenu.js -->
<g id="node4" class="node">
<title>ReactRouterMenu.js</title>
<path fill="none" stroke="#cfffac" d="M243.3333,-105C243.3333,-105 109.6667,-105 109.6667,-105 105.8333,-105 102,-101.1667 102,-97.3333 102,-97.3333 102,-89.6667 102,-89.6667 102,-85.8333 105.8333,-82 109.6667,-82 109.6667,-82 243.3333,-82 243.3333,-82 247.1667,-82 251,-85.8333 251,-89.6667 251,-89.6667 251,-97.3333 251,-97.3333 251,-101.1667 247.1667,-105 243.3333,-105"/>
<text text-anchor="middle" x="176.5" y="-89.8" font-family="Arial" font-size="14.00" fill="#cfffac">ReactRouterMenu.js</text>
</g>
<!-- Status.js -->
<g id="node5" class="node">
<title>Status.js</title>
<path fill="none" stroke="#c6c5fe" d="M204.8333,-64C204.8333,-64 148.1667,-64 148.1667,-64 144.3333,-64 140.5,-60.1667 140.5,-56.3333 140.5,-56.3333 140.5,-48.6667 140.5,-48.6667 140.5,-44.8333 144.3333,-41 148.1667,-41 148.1667,-41 204.8333,-41 204.8333,-41 208.6667,-41 212.5,-44.8333 212.5,-48.6667 212.5,-48.6667 212.5,-56.3333 212.5,-56.3333 212.5,-60.1667 208.6667,-64 204.8333,-64"/>
<text text-anchor="middle" x="176.5" y="-48.8" font-family="Arial" font-size="14.00" fill="#c6c5fe">Status.js</text>
</g>
<!-- Status.js&#45;&gt;DisplayObjAsTable.js -->
<g id="edge1" class="edge">
<title>Status.js&#45;&gt;DisplayObjAsTable.js</title>
<path fill="none" stroke="#757575" d="M212.6519,-52.5C231.0063,-52.5 254.1696,-52.5 276.8192,-52.5"/>
<polygon fill="#757575" stroke="#757575" points="276.8234,-56.0001 286.8233,-52.5 276.8233,-49.0001 276.8234,-56.0001"/>
</g>
<!-- index.css -->
<g id="node6" class="node">
<title>index.css</title>
<path fill="none" stroke="#cfffac" d="M207.8333,-23C207.8333,-23 145.1667,-23 145.1667,-23 141.3333,-23 137.5,-19.1667 137.5,-15.3333 137.5,-15.3333 137.5,-7.6667 137.5,-7.6667 137.5,-3.8333 141.3333,0 145.1667,0 145.1667,0 207.8333,0 207.8333,0 211.6667,0 215.5,-3.8333 215.5,-7.6667 215.5,-7.6667 215.5,-15.3333 215.5,-15.3333 215.5,-19.1667 211.6667,-23 207.8333,-23"/>
<text text-anchor="middle" x="176.5" y="-7.8" font-family="Arial" font-size="14.00" fill="#cfffac">index.css</text>
</g>
<!-- index.js -->
<g id="node7" class="node">
<title>index.js</title>
<path fill="none" stroke="#c6c5fe" d="M58.3333,-105C58.3333,-105 7.6667,-105 7.6667,-105 3.8333,-105 0,-101.1667 0,-97.3333 0,-97.3333 0,-89.6667 0,-89.6667 0,-85.8333 3.8333,-82 7.6667,-82 7.6667,-82 58.3333,-82 58.3333,-82 62.1667,-82 66,-85.8333 66,-89.6667 66,-89.6667 66,-97.3333 66,-97.3333 66,-101.1667 62.1667,-105 58.3333,-105"/>
<text text-anchor="middle" x="33" y="-89.8" font-family="Arial" font-size="14.00" fill="#c6c5fe">index.js</text>
</g>
<!-- index.js&#45;&gt;HelloWorld.tsx -->
<g id="edge2" class="edge">
<title>index.js&#45;&gt;HelloWorld.tsx</title>
<path fill="none" stroke="#757575" d="M42.9818,-105.3692C55.4045,-119.3866 77.9361,-142.443 102,-155.5 105.2517,-157.2644 108.6691,-158.8808 112.1787,-160.3608"/>
<polygon fill="#757575" stroke="#757575" points="111.0424,-163.6733 121.6332,-163.9673 113.5373,-157.133 111.0424,-163.6733"/>
</g>
<!-- index.js&#45;&gt;Page.js -->
<g id="edge3" class="edge">
<title>index.js&#45;&gt;Page.js</title>
<path fill="none" stroke="#757575" d="M66.2749,-103.8708C77.5888,-107.3321 90.3232,-111.1567 102,-114.5 112.342,-117.4611 123.5289,-120.5331 134.0123,-123.3548"/>
<polygon fill="#757575" stroke="#757575" points="133.2324,-126.7692 143.7972,-125.9718 135.041,-120.0069 133.2324,-126.7692"/>
</g>
<!-- index.js&#45;&gt;ReactRouterMenu.js -->
<g id="edge4" class="edge">
<title>index.js&#45;&gt;ReactRouterMenu.js</title>
<path fill="none" stroke="#757575" d="M66.2825,-93.5C74.1028,-93.5 82.7887,-93.5 91.7547,-93.5"/>
<polygon fill="#757575" stroke="#757575" points="91.9654,-97.0001 101.9654,-93.5 91.9654,-90.0001 91.9654,-97.0001"/>
</g>
<!-- index.js&#45;&gt;Status.js -->
<g id="edge5" class="edge">
<title>index.js&#45;&gt;Status.js</title>
<path fill="none" stroke="#757575" d="M66.3266,-83.7864C77.6444,-80.5019 90.3679,-76.8252 102,-73.5 111.3017,-70.841 121.2636,-68.0167 130.7787,-65.3304"/>
<polygon fill="#757575" stroke="#757575" points="131.8112,-68.6759 140.4863,-62.5937 129.9118,-61.9385 131.8112,-68.6759"/>
</g>
<!-- index.js&#45;&gt;index.css -->
<g id="edge6" class="edge">
<title>index.js&#45;&gt;index.css</title>
<path fill="none" stroke="#757575" d="M42.9818,-81.6308C55.4045,-67.6134 77.9361,-44.557 102,-31.5 109.8681,-27.2308 118.7066,-23.8275 127.4722,-21.1289"/>
<polygon fill="#757575" stroke="#757575" points="128.6017,-24.4472 137.2824,-18.3731 126.7085,-17.7081 128.6017,-24.4472"/>
</g>
</g>
</svg>
